subject01_walk1_RRA_states
nRows=5
nColumns=47

# SIMM Motion File Header:
name subject01_walk1_RRA_states
datacolumns 47
datarows 5
otherdata 1
range 1.24599999999997340000 1.24799999999997310000
endheader
time	pelvis_tx	pelvis_ty	pelvis_tz	pelvis_tilt	pelvis_list	pelvis_rotation	hip_flexion_r	hip_adduction_r	hip_rotation_r	knee_angle_r	ankle_angle_r	subtalar_angle_r	mtp_angle_r	hip_flexion_l	hip_adduction_l	hip_rotation_l	knee_angle_l	ankle_angle_l	subtalar_angle_l	mtp_angle_l	lumbar_extension	lumbar_bending	lumbar_rotation	pelvis_tx_u	pelvis_ty_u	pelvis_tz_u	pelvis_tilt_u	pelvis_list_u	pelvis_rotation_u	hip_flexion_r_u	hip_adduction_r_u	hip_rotation_r_u	knee_angle_r_u	ankle_angle_r_u	subtalar_angle_r_u	mtp_angle_r_u	hip_flexion_l_u	hip_adduction_l_u	hip_rotation_l_u	knee_angle_l_u	ankle_angle_l_u	subtalar_angle_l_u	mtp_angle_l_u	lumbar_extension_u	lumbar_bending_u	lumbar_rotation_u
      1.24599999999997340000	      0.59208178525495181000	      1.00955477495280620000	      0.05173934687994614200	      4.79490620904016040000	     -4.22061801353590750000	     -4.05185681709141040000	    -21.06969612117390200000	      4.70708702343813280000	      2.76630671526066110000	     -7.88926183837282040000	     13.80041901782455800000	      0.01379800010093451200	     -0.05174518457487643100	     19.06612800050728000000	     -5.46600347185391920000	     -3.98991721130798240000	     -2.66573554896899710000	     -0.82339813046548360000	     -0.00249072483152333900	      0.00342930976982540850	    -16.64860874242623400000	      3.21038749289211770000	      3.87626187335921110000	      0.11466830824531885000	     -0.10143097561720846000	     -0.04208368277761587200	     -3.06052708816228950000	      5.19102361185842480000	    -19.35526480932548700000	    -28.95806030508405400000	    -23.10094578601805900000	     30.63435471950726100000	    -81.56087125493446900000	     37.13336429677916300000	     -0.29055591769245054000	     -0.40987619738365866000	     22.98942269758479600000	     10.85453341227487900000	     22.70789480458523400000	   -116.35898069061479000000	    -24.74991932799093800000	      0.04580630176117969600	     -0.06427011922396221000	     10.87290740265436800000	    -29.00903664725779400000	     -1.33786402160346050000
      1.24649999999997330000	      0.59213937363806879000	      1.00950420309264510000	      0.05171827793500445600	      4.79336756558902000000	     -4.21801016989986000000	     -4.06151363623871480000	    -21.08407741470766400000	      4.69554405974782880000	      2.78160693042266200000	     -7.93024979512245220000	     13.81898308500698200000	      0.01365153025202230100	     -0.05195100877879149000	     19.07766265208975700000	     -5.46056825205528270000	     -3.97867043189490000000	     -2.72425848152214730000	     -0.83590154369980674000	     -0.00246753807365147300	      0.00339628729184863210	    -16.64313862558701400000	      3.19585685971406400000	      3.87557099686954710000	      0.11568567138288928000	     -0.10085543891678446000	     -0.04219238593911411200	     -3.09389133140759490000	      5.24016819262361460000	    -19.27186776534352600000	    -28.56670244263062800000	    -23.07057481762822700000	     30.56585232211533700000	    -82.39198545149739100000	     37.12193902641909200000	     -0.29545746162364989000	     -0.41444934505117809000	     23.14853384439750500000	     10.88632626849741800000	     22.27956756547966700000	   -117.73018899805395000000	    -25.26235346130654900000	      0.04740444242880588500	     -0.06912918901626027800	     11.00744958067052400000	    -29.11325305292055200000	     -1.42568809708752050000
      1.24699999999997320000	      0.59219747133753575000	      1.00945392060129490000	      0.05169715417552736600	      4.79181248244420480000	     -4.21537799251649850000	     -4.07112852690678740000	    -21.09826241638182500000	      4.68401674326312810000	      2.79687192637854660000	     -7.97165480316982670000	     13.83753936943957000000	      0.01350251417350068300	     -0.05215961430268660500	     19.08927586280196600000	     -5.45511712185698090000	     -3.96763728547307170000	     -2.78346300255499870000	     -0.84866001309367411000	     -0.00244330558949083400	      0.00336014322507831440	    -16.63760141545072500000	      3.18127444627651150000	      3.87483611785254610000	      0.11670549836978684000	     -0.10027337502810689000	     -0.04230300200971570000	     -3.12626649172735820000	      5.28843251834993120000	    -19.18752222312619400000	    -28.17290256870409900000	    -23.03843926922317200000	     30.49350192515332800000	    -83.22896914249821500000	     37.10098121473963300000	     -0.30051229653837547000	     -0.41889254687402178000	     23.30361410283775200000	     10.91826506499695500000	     21.85339145138553700000	   -119.08497197065398000000	    -25.77202046601157500000	      0.04905745101065616500	     -0.07413109644797188900	     11.14125523833524200000	    -29.21623365260036200000	     -1.51391805441833970000
      1.24749999999997320000	      0.59225607955440918000	      1.00940393089143730000	      0.05167597458390239800	      4.79024147276473840000	     -4.21272186665663020000	     -4.08070099621739320000	    -21.11224990919406600000	      4.67250589232296140000	      2.81209976970333520000	     -8.01347971072316770000	     13.85608233080466600000	      0.01335103512793254000	     -0.05236968974890777300	     19.10096558030743100000	     -5.44964994228039770000	     -3.95681667499642580000	     -2.84334063402981880000	     -0.86167335591208527000	     -0.00241868815729119480	      0.00332249185712107630	    -16.63199749980986300000	      3.16664081707228680000	      3.87405700173189030000	      0.11772783513973167000	     -0.09968427729854552300	     -0.04241570740948136900	     -3.15760154896482260000	      5.33591571630871360000	    -19.10220516313279800000	    -27.77665180166686600000	    -23.00466643803106200000	     30.41718021116682600000	    -84.07164377669704400000	     37.06965812825227900000	     -0.30548152883031138000	     -0.42214089454104253000	     23.45458339692118700000	     10.95046412263098500000	     21.42941023914293600000	   -120.42286355090111000000	    -26.28032637786864000000	      0.04955123151757843300	     -0.07726362288257661300	     11.27428611736189800000	    -29.31806251927508800000	     -1.60260740018536320000
      1.24799999999997310000	      0.59231519961087398000	      1.00935423754814390000	      0.05165473811053173500	      4.78865505500012030000	     -4.21004221120491100000	     -4.09023057351260810000	    -21.12603864649758400000	      4.66101235256889360000	      2.82728844233331020000	     -8.05572741800485130000	     13.87460735522623000000	      0.01319702599658946300	     -0.05258168565815542200	     19.11272976588525200000	     -5.44416662628238250000	     -3.94620749476533250000	     -2.90388307958341100000	     -0.87493992009594646000	     -0.00239381025266188980	      0.00328297293743971780	    -16.62632725624359900000	      3.15195658282960520000	      3.87323343658069330000	      0.11875280323230090000	     -0.09908784406647919200	     -0.04253055272867203900	     -3.18789394801984650000	      5.38258681091894700000	    -19.01593887784567000000	    -27.37786832788532700000	    -22.96923265542934100000	     30.33687769570599000000	    -84.92015786797654200000	     37.02835040008778100000	     -0.31050911088873046000	     -0.42504997796156579000	     23.60147528188806400000	     10.98284354442926200000	     21.00771378283455000000	   -121.74406246655512000000	    -26.78600078270424200000	      0.04979986422047133500	     -0.07998539560687623100	     11.40655760247976100000	    -29.41869111854037300000	     -1.69173665691206000000
